<svg viewBox="0 0 33 56" fill="none" xmlns="http://www.w3.org/2000/svg">
<path d="M12.0789 27.5636L31.1689 8.47356C32.0797 7.53055 32.5837 6.26754 32.5723 4.95655C32.5609 3.64557 32.0351 2.39151 31.108 1.46447C30.181 0.537426 28.9269 0.0115811 27.6159 0.000189013C26.305 -0.0112031 25.0419 0.492769 24.0989 1.40356L1.46894 24.0236C1.00331 24.488 0.633878 25.0398 0.381813 25.6472C0.129749 26.2547 0 26.9059 0 27.5636C0 28.2212 0.129749 28.8724 0.381813 29.4799C0.633878 30.0873 1.00331 30.6391 1.46894 31.1036L24.0989 53.7236C25.0366 54.6609 26.3081 55.1875 27.6339 55.1875C28.9598 55.1875 30.2313 54.6609 31.1689 53.7236C32.1063 52.7859 32.6329 51.5144 32.6329 50.1886C32.6329 48.8627 32.1063 47.5912 31.1689 46.6536L12.0789 27.5636Z" fill="#532B88"/>
</svg>
