<svg viewBox="0 0 69 88" fill="none" xmlns="http://www.w3.org/2000/svg">
<path d="M11.656 0C5.2185 0 0 5.1875 0 11.531V75.969C0 82.3128 5.2188 87.5 11.656 87.5H65.625C67.3438 87.5 68.75 86.0938 68.75 84.375V3.125C68.75 1.4062 67.3438 0 65.625 0H37.5V27.594C37.5 29.3128 36.0938 30.719 34.375 30.719H21.125C19.4062 30.719 18 29.3128 18 27.594V0H11.656ZM62.5 70.688V81.25H11.656C8.6872 81.25 6.2498 78.875 6.2498 75.9688C6.2498 74.5313 6.78105 73.25 7.8436 72.25C8.81235 71.25 10.2186 70.6875 11.6561 70.6875L62.5 70.688Z" fill="white"/>
<path d="M24.25 0H31.25V24.469H24.25V0Z" fill="white"/>
</svg>
