<svg width="82" height="58" viewBox="0 0 82 58" fill="none" xmlns="http://www.w3.org/2000/svg">
<path d="M8.3 53.9932C7.7 54.0932 7.1 53.8932 6.7 53.5932C6.2 53.1932 6 52.6932 6 52.0932V8.49316H2C0.9 8.49316 0 9.39316 0 10.4932V55.9932C0 57.0932 0.9 57.9932 2 57.9932H34C26.2 53.9932 17.1 52.5932 8.3 53.9932Z" fill="#532B88"/>
<path d="M80 8.49316H76V52.0932C76 52.6932 75.7 53.1932 75.3 53.5932C74.9 53.9932 74.3 54.0932 73.7 53.9932C64.9 52.5932 55.9 53.9932 48 57.9932H80C81.1 57.9932 82 57.0932 82 55.9932V10.4932C82 9.39316 81.1 8.49316 80 8.49316Z" fill="#532B88"/>
<path d="M10 0.293184V49.7932C20.1 48.6932 30.4 50.9932 39 56.2932V7.49318C30.6 1.59318 20.2 -0.906816 10 0.293184Z" fill="#532B88"/>
<path d="M72 49.7932V0.293184C61.8 -0.906816 51.4 1.59318 43 7.49318V56.1932C51.6 50.9932 61.9 48.6932 72 49.7932Z" fill="#532B88"/>
</svg>
