<svg viewBox="0 0 70 75" fill="none" xmlns="http://www.w3.org/2000/svg">
<path d="M62.4511 66.912C64.662 66.912 66.4511 68.7011 66.4511 70.912C66.4511 73.1229 64.662 74.912 62.4511 74.912H21.4511C19.2402 74.912 17.4511 73.1229 17.4511 70.912C17.4511 68.7011 19.2402 66.912 21.4511 66.912H62.4511ZM69.6894 6.11896C69.9082 7.28696 69.8457 8.49395 69.5097 9.63455L60.5175 39.9316C57.5448 49.9516 48.3765 56.8496 37.9315 56.9316L21.0295 57.0683L9.61953 73.3843C7.16643 76.8921 1.83433 73.771 3.54143 69.9781L3.63518 69.7828L29.5022 19.1888C34.1897 10.0091 42.8692 3.52476 52.9982 1.62276L60.9318 0.130564C65.006 -0.635056 68.9238 2.04475 69.6894 6.11896ZM11.3224 6.63848C11.8654 6.86504 12.2951 7.29473 12.5255 7.83768L13.3341 9.75958C14.1466 11.6854 15.6779 13.2166 17.6036 14.0291L19.5255 14.8377C20.67 15.3221 21.2091 16.6385 20.7247 17.783C20.4981 18.3259 20.0685 18.7556 19.5255 18.9861L17.6036 19.7947C15.6778 20.6072 14.1466 22.1385 13.3341 24.0642L12.5255 25.9861C12.0411 27.1306 10.7247 27.6697 9.58022 27.1853C9.03725 26.9587 8.60756 26.529 8.37712 25.9861L7.56853 24.0642C6.75603 22.1384 5.22473 20.6072 3.29903 19.7947L1.37713 18.9861C0.232628 18.5017 -0.306472 17.1853 0.177928 16.0408C0.404488 15.4978 0.834178 15.0681 1.37713 14.8377L3.29903 14.0291C5.22483 13.2166 6.75603 11.6853 7.56853 9.75958L8.37712 7.83768C8.8615 6.69318 10.1779 6.15408 11.3224 6.63848ZM51.4514 19.9115H43.4514C41.7952 19.9115 40.4514 21.2553 40.4514 22.9115C40.4514 24.5677 41.7952 25.9115 43.4514 25.9115H51.4514C53.1076 25.9115 54.4514 24.5677 54.4514 22.9115C54.4514 21.2553 53.1076 19.9115 51.4514 19.9115Z" fill="white"/>
</svg>
